<mxfile host="app.diagrams.net" modified="2024-03-15T21:23:33.009Z" agent="Mozilla/5.0 (Windows NT 10.0; Win64; x64) AppleWebKit/537.36 (KHTML, like Gecko) Chrome/121.0.0.0 Safari/537.36 OPR/107.0.0.0" etag="1TUNQ3bisz-xLqn06A9Q" version="24.0.7" type="device" pages="3">
  <diagram name="Diagrama de Componentes" id="5f0bae14-7c28-e335-631c-24af17079c00">
    <mxGraphModel dx="1187" dy="684" grid="1" gridSize="10" guides="1" tooltips="1" connect="1" arrows="1" fold="1" page="1" pageScale="1" pageWidth="1100" pageHeight="850" background="none" math="0" shadow="0">
      <root>
        <mxCell id="0" />
        <mxCell id="1" parent="0" />
        <mxCell id="sM8zdJ-WYEx3ZDRq6aly-1" value="«Component»&lt;br&gt;&lt;b&gt;Banco API&lt;/b&gt;" style="html=1;dropTarget=0;whiteSpace=wrap;" parent="1" vertex="1">
          <mxGeometry x="280" y="285" width="180" height="90" as="geometry" />
        </mxCell>
        <mxCell id="sM8zdJ-WYEx3ZDRq6aly-2" value="" style="shape=module;jettyWidth=8;jettyHeight=4;" parent="sM8zdJ-WYEx3ZDRq6aly-1" vertex="1">
          <mxGeometry x="1" width="20" height="20" relative="1" as="geometry">
            <mxPoint x="-27" y="7" as="offset" />
          </mxGeometry>
        </mxCell>
        <mxCell id="sM8zdJ-WYEx3ZDRq6aly-3" value="«Component»&lt;br&gt;&lt;b&gt;DataBase AWS&lt;/b&gt;" style="html=1;dropTarget=0;whiteSpace=wrap;" parent="1" vertex="1">
          <mxGeometry x="650" y="285" width="180" height="90" as="geometry" />
        </mxCell>
        <mxCell id="sM8zdJ-WYEx3ZDRq6aly-4" value="" style="shape=module;jettyWidth=8;jettyHeight=4;" parent="sM8zdJ-WYEx3ZDRq6aly-3" vertex="1">
          <mxGeometry x="1" width="20" height="20" relative="1" as="geometry">
            <mxPoint x="-27" y="7" as="offset" />
          </mxGeometry>
        </mxCell>
        <mxCell id="sM8zdJ-WYEx3ZDRq6aly-6" value="" style="ellipse;whiteSpace=wrap;html=1;align=center;aspect=fixed;fillColor=none;strokeColor=none;resizable=0;perimeter=centerPerimeter;rotatable=0;allowArrows=0;points=[];outlineConnect=1;" parent="1" vertex="1">
          <mxGeometry x="480" y="320" width="10" height="10" as="geometry" />
        </mxCell>
        <mxCell id="sM8zdJ-WYEx3ZDRq6aly-8" value="" style="rounded=0;orthogonalLoop=1;jettySize=auto;html=1;endArrow=halfCircle;endFill=0;endSize=6;strokeWidth=1;sketch=0;fontSize=12;curved=1;exitX=1;exitY=0.5;exitDx=0;exitDy=0;" parent="1" source="sM8zdJ-WYEx3ZDRq6aly-1" edge="1">
          <mxGeometry relative="1" as="geometry">
            <mxPoint x="515" y="420" as="sourcePoint" />
            <mxPoint x="500" y="330" as="targetPoint" />
          </mxGeometry>
        </mxCell>
        <mxCell id="sM8zdJ-WYEx3ZDRq6aly-9" value="" style="ellipse;whiteSpace=wrap;html=1;align=center;aspect=fixed;fillColor=none;strokeColor=none;resizable=0;perimeter=centerPerimeter;rotatable=0;allowArrows=0;points=[];outlineConnect=1;" parent="1" vertex="1">
          <mxGeometry x="490" y="415" width="10" height="10" as="geometry" />
        </mxCell>
        <mxCell id="sM8zdJ-WYEx3ZDRq6aly-12" value="" style="ellipse;whiteSpace=wrap;html=1;aspect=fixed;" parent="1" vertex="1">
          <mxGeometry x="600" y="321" width="18" height="18" as="geometry" />
        </mxCell>
        <mxCell id="sM8zdJ-WYEx3ZDRq6aly-14" value="" style="endArrow=none;html=1;rounded=0;entryX=0;entryY=0.5;entryDx=0;entryDy=0;exitX=1;exitY=0.5;exitDx=0;exitDy=0;" parent="1" source="sM8zdJ-WYEx3ZDRq6aly-12" target="sM8zdJ-WYEx3ZDRq6aly-3" edge="1">
          <mxGeometry width="50" height="50" relative="1" as="geometry">
            <mxPoint x="490" y="475" as="sourcePoint" />
            <mxPoint x="540" y="425" as="targetPoint" />
          </mxGeometry>
        </mxCell>
        <mxCell id="sM8zdJ-WYEx3ZDRq6aly-21" value="" style="endArrow=open;endSize=12;dashed=1;html=1;rounded=0;exitX=1;exitY=0.5;exitDx=0;exitDy=0;entryX=0;entryY=0.5;entryDx=0;entryDy=0;" parent="1" source="sM8zdJ-WYEx3ZDRq6aly-1" target="sM8zdJ-WYEx3ZDRq6aly-12" edge="1">
          <mxGeometry width="160" relative="1" as="geometry">
            <mxPoint x="500" y="285" as="sourcePoint" />
            <mxPoint x="660" y="285" as="targetPoint" />
          </mxGeometry>
        </mxCell>
        <mxCell id="sM8zdJ-WYEx3ZDRq6aly-22" value="&lt;span style=&quot;font-weight: normal;&quot;&gt;&lt;font style=&quot;font-size: 10px;&quot;&gt;Solicitar&lt;/font&gt;&lt;/span&gt;" style="text;align=center;fontStyle=1;verticalAlign=middle;spacingLeft=3;spacingRight=3;strokeColor=none;rotatable=0;points=[[0,0.5],[1,0.5]];portConstraint=eastwest;html=1;" parent="1" vertex="1">
          <mxGeometry x="460" y="294" width="80" height="26" as="geometry" />
        </mxCell>
        <mxCell id="sM8zdJ-WYEx3ZDRq6aly-23" value="&lt;span style=&quot;font-weight: normal;&quot;&gt;&lt;font style=&quot;font-size: 10px;&quot;&gt;Datos&lt;/font&gt;&lt;/span&gt;" style="text;align=center;fontStyle=1;verticalAlign=middle;spacingLeft=3;spacingRight=3;strokeColor=none;rotatable=0;points=[[0,0.5],[1,0.5]];portConstraint=eastwest;html=1;" parent="1" vertex="1">
          <mxGeometry x="569" y="295" width="80" height="26" as="geometry" />
        </mxCell>
      </root>
    </mxGraphModel>
  </diagram>
  <diagram id="8LJk-ZSBHbvtmedRyUfo" name="Diagrama de Paquetes">
    <mxGraphModel dx="3218" dy="1162" grid="1" gridSize="10" guides="1" tooltips="1" connect="1" arrows="1" fold="1" page="1" pageScale="1" pageWidth="1200" pageHeight="1600" math="0" shadow="0">
      <root>
        <mxCell id="0" />
        <mxCell id="1" parent="0" />
        <mxCell id="kVieWD78zredjpgZStoI-10" value="" style="group" vertex="1" connectable="0" parent="1">
          <mxGeometry x="-1190" y="245" width="1120" height="1110" as="geometry" />
        </mxCell>
        <mxCell id="kVieWD78zredjpgZStoI-8" value="" style="shape=folder;fontStyle=1;spacingTop=10;tabWidth=100;tabHeight=20;tabPosition=left;html=1;whiteSpace=wrap;" vertex="1" parent="kVieWD78zredjpgZStoI-10">
          <mxGeometry x="92.22053388262283" y="13.86953851081248" width="1027.779466117377" height="1096.1304614891876" as="geometry" />
        </mxCell>
        <mxCell id="kVieWD78zredjpgZStoI-9" value="&lt;span style=&quot;text-wrap: wrap;&quot;&gt;src&lt;/span&gt;" style="text;align=center;fontStyle=1;verticalAlign=middle;spacingLeft=3;spacingRight=3;strokeColor=none;rotatable=0;points=[[0,0.5],[1,0.5]];portConstraint=eastwest;html=1;" vertex="1" parent="kVieWD78zredjpgZStoI-10">
          <mxGeometry x="86" y="13.87" width="110" height="20" as="geometry" />
        </mxCell>
        <mxCell id="BmNrjYbsliHYKkBvN_70-7" value="" style="group" parent="kVieWD78zredjpgZStoI-10" vertex="1" connectable="0">
          <mxGeometry x="195" y="110" width="390" height="220" as="geometry" />
        </mxCell>
        <mxCell id="BmNrjYbsliHYKkBvN_70-1" value="" style="shape=folder;fontStyle=1;spacingTop=10;tabWidth=100;tabHeight=20;tabPosition=left;html=1;whiteSpace=wrap;" parent="BmNrjYbsliHYKkBvN_70-7" vertex="1">
          <mxGeometry width="390" height="220" as="geometry" />
        </mxCell>
        <mxCell id="BmNrjYbsliHYKkBvN_70-2" value="&lt;span style=&quot;text-wrap: wrap;&quot;&gt;aplication&lt;/span&gt;" style="text;align=center;fontStyle=1;verticalAlign=middle;spacingLeft=3;spacingRight=3;strokeColor=none;rotatable=0;points=[[0,0.5],[1,0.5]];portConstraint=eastwest;html=1;" parent="BmNrjYbsliHYKkBvN_70-7" vertex="1">
          <mxGeometry x="-20.00347826086957" y="0.0015384615384608225" width="135.65217391304344" height="16.923076923076923" as="geometry" />
        </mxCell>
        <mxCell id="BmNrjYbsliHYKkBvN_70-8" value="" style="group" parent="BmNrjYbsliHYKkBvN_70-7" vertex="1" connectable="0">
          <mxGeometry x="40" y="60" width="130" height="100" as="geometry" />
        </mxCell>
        <mxCell id="BmNrjYbsliHYKkBvN_70-3" value="" style="shape=folder;fontStyle=1;spacingTop=10;tabWidth=100;tabHeight=20;tabPosition=left;html=1;whiteSpace=wrap;" parent="BmNrjYbsliHYKkBvN_70-8" vertex="1">
          <mxGeometry width="130" height="100" as="geometry" />
        </mxCell>
        <mxCell id="BmNrjYbsliHYKkBvN_70-4" value="&lt;span style=&quot;text-wrap: wrap;&quot;&gt;data&lt;/span&gt;" style="text;align=center;fontStyle=1;verticalAlign=middle;spacingLeft=3;spacingRight=3;strokeColor=none;rotatable=0;points=[[0,0.5],[1,0.5]];portConstraint=eastwest;html=1;" parent="BmNrjYbsliHYKkBvN_70-8" vertex="1">
          <mxGeometry x="20.005000000000003" y="4.545454545454545" width="65" height="9.09090909090909" as="geometry" />
        </mxCell>
        <mxCell id="BmNrjYbsliHYKkBvN_70-9" value="" style="group" parent="BmNrjYbsliHYKkBvN_70-7" vertex="1" connectable="0">
          <mxGeometry x="230" y="60" width="130" height="100" as="geometry" />
        </mxCell>
        <mxCell id="BmNrjYbsliHYKkBvN_70-10" value="" style="shape=folder;fontStyle=1;spacingTop=10;tabWidth=100;tabHeight=20;tabPosition=left;html=1;whiteSpace=wrap;" parent="BmNrjYbsliHYKkBvN_70-9" vertex="1">
          <mxGeometry width="130" height="100" as="geometry" />
        </mxCell>
        <mxCell id="BmNrjYbsliHYKkBvN_70-11" value="&lt;span style=&quot;text-wrap: wrap;&quot;&gt;service&lt;/span&gt;" style="text;align=center;fontStyle=1;verticalAlign=middle;spacingLeft=3;spacingRight=3;strokeColor=none;rotatable=0;points=[[0,0.5],[1,0.5]];portConstraint=eastwest;html=1;" parent="BmNrjYbsliHYKkBvN_70-9" vertex="1">
          <mxGeometry x="20.005000000000003" y="4.545454545454545" width="65" height="9.09090909090909" as="geometry" />
        </mxCell>
        <mxCell id="BmNrjYbsliHYKkBvN_70-56" value="" style="endArrow=open;endSize=12;dashed=1;html=1;rounded=0;fontFamily=Helvetica;fontSize=12;fontColor=default;exitX=0;exitY=0;exitDx=0;exitDy=60;exitPerimeter=0;entryX=0;entryY=0;entryDx=130;entryDy=60;entryPerimeter=0;" parent="BmNrjYbsliHYKkBvN_70-7" source="BmNrjYbsliHYKkBvN_70-10" target="BmNrjYbsliHYKkBvN_70-3" edge="1">
          <mxGeometry width="160" relative="1" as="geometry">
            <mxPoint x="187" y="180" as="sourcePoint" />
            <mxPoint x="277" y="180" as="targetPoint" />
          </mxGeometry>
        </mxCell>
        <mxCell id="BmNrjYbsliHYKkBvN_70-12" value="" style="group" parent="kVieWD78zredjpgZStoI-10" vertex="1" connectable="0">
          <mxGeometry x="675" y="110" width="390" height="220" as="geometry" />
        </mxCell>
        <mxCell id="BmNrjYbsliHYKkBvN_70-62" style="edgeStyle=orthogonalEdgeStyle;rounded=0;orthogonalLoop=1;jettySize=auto;html=1;exitX=0;exitY=0;exitDx=245;exitDy=20;exitPerimeter=0;fontFamily=Helvetica;fontSize=12;fontColor=default;strokeColor=none;" parent="BmNrjYbsliHYKkBvN_70-12" source="BmNrjYbsliHYKkBvN_70-13" edge="1">
          <mxGeometry relative="1" as="geometry">
            <mxPoint x="230" y="-70" as="targetPoint" />
          </mxGeometry>
        </mxCell>
        <mxCell id="BmNrjYbsliHYKkBvN_70-63" style="edgeStyle=orthogonalEdgeStyle;rounded=0;orthogonalLoop=1;jettySize=auto;html=1;exitX=0;exitY=0;exitDx=245;exitDy=20;exitPerimeter=0;fontFamily=Helvetica;fontSize=12;fontColor=default;strokeColor=none;" parent="BmNrjYbsliHYKkBvN_70-12" source="BmNrjYbsliHYKkBvN_70-13" edge="1">
          <mxGeometry relative="1" as="geometry">
            <mxPoint x="90" y="-90" as="targetPoint" />
          </mxGeometry>
        </mxCell>
        <mxCell id="BmNrjYbsliHYKkBvN_70-13" value="" style="shape=folder;fontStyle=1;spacingTop=10;tabWidth=100;tabHeight=20;tabPosition=left;html=1;whiteSpace=wrap;" parent="BmNrjYbsliHYKkBvN_70-12" vertex="1">
          <mxGeometry width="390" height="220" as="geometry" />
        </mxCell>
        <mxCell id="BmNrjYbsliHYKkBvN_70-14" value="&lt;span style=&quot;text-wrap: wrap;&quot;&gt;domain&lt;/span&gt;" style="text;align=center;fontStyle=1;verticalAlign=middle;spacingLeft=3;spacingRight=3;strokeColor=none;rotatable=0;points=[[0,0.5],[1,0.5]];portConstraint=eastwest;html=1;" parent="BmNrjYbsliHYKkBvN_70-12" vertex="1">
          <mxGeometry x="-20.00347826086957" y="0.0015384615384608225" width="135.65217391304344" height="16.923076923076923" as="geometry" />
        </mxCell>
        <mxCell id="BmNrjYbsliHYKkBvN_70-15" value="" style="group" parent="BmNrjYbsliHYKkBvN_70-12" vertex="1" connectable="0">
          <mxGeometry x="40" y="60" width="130" height="100" as="geometry" />
        </mxCell>
        <mxCell id="BmNrjYbsliHYKkBvN_70-16" value="" style="shape=folder;fontStyle=1;spacingTop=10;tabWidth=100;tabHeight=20;tabPosition=left;html=1;whiteSpace=wrap;" parent="BmNrjYbsliHYKkBvN_70-15" vertex="1">
          <mxGeometry width="130" height="100" as="geometry" />
        </mxCell>
        <mxCell id="BmNrjYbsliHYKkBvN_70-17" value="&lt;span style=&quot;text-wrap: wrap;&quot;&gt;repository&lt;/span&gt;" style="text;align=center;fontStyle=1;verticalAlign=middle;spacingLeft=3;spacingRight=3;strokeColor=none;rotatable=0;points=[[0,0.5],[1,0.5]];portConstraint=eastwest;html=1;" parent="BmNrjYbsliHYKkBvN_70-15" vertex="1">
          <mxGeometry x="20.005000000000003" y="4.545454545454545" width="65" height="9.09090909090909" as="geometry" />
        </mxCell>
        <mxCell id="BmNrjYbsliHYKkBvN_70-18" value="" style="group" parent="BmNrjYbsliHYKkBvN_70-12" vertex="1" connectable="0">
          <mxGeometry x="210" y="60" width="130" height="100" as="geometry" />
        </mxCell>
        <mxCell id="BmNrjYbsliHYKkBvN_70-19" value="" style="shape=folder;fontStyle=1;spacingTop=10;tabWidth=100;tabHeight=20;tabPosition=left;html=1;whiteSpace=wrap;" parent="BmNrjYbsliHYKkBvN_70-18" vertex="1">
          <mxGeometry width="130" height="100" as="geometry" />
        </mxCell>
        <mxCell id="BmNrjYbsliHYKkBvN_70-20" value="&lt;span style=&quot;text-wrap: wrap;&quot;&gt;response&lt;/span&gt;" style="text;align=center;fontStyle=1;verticalAlign=middle;spacingLeft=3;spacingRight=3;strokeColor=none;rotatable=0;points=[[0,0.5],[1,0.5]];portConstraint=eastwest;html=1;" parent="BmNrjYbsliHYKkBvN_70-18" vertex="1">
          <mxGeometry x="20.005000000000003" y="4.545454545454545" width="65" height="9.09090909090909" as="geometry" />
        </mxCell>
        <mxCell id="BmNrjYbsliHYKkBvN_70-21" value="" style="group" parent="kVieWD78zredjpgZStoI-10" vertex="1" connectable="0">
          <mxGeometry x="265" y="360" width="780" height="670" as="geometry" />
        </mxCell>
        <mxCell id="BmNrjYbsliHYKkBvN_70-22" value="" style="shape=folder;fontStyle=1;spacingTop=10;tabWidth=100;tabHeight=20;tabPosition=left;html=1;whiteSpace=wrap;" parent="BmNrjYbsliHYKkBvN_70-21" vertex="1">
          <mxGeometry width="780" height="670" as="geometry" />
        </mxCell>
        <mxCell id="BmNrjYbsliHYKkBvN_70-23" value="&lt;span style=&quot;text-wrap: wrap;&quot;&gt;infrastructure&lt;/span&gt;" style="text;align=center;fontStyle=1;verticalAlign=middle;spacingLeft=3;spacingRight=3;strokeColor=none;rotatable=0;points=[[0,0.5],[1,0.5]];portConstraint=eastwest;html=1;" parent="BmNrjYbsliHYKkBvN_70-21" vertex="1">
          <mxGeometry x="-80.69323338330837" y="-9.996013986013988" width="265.06746626686646" height="43.84615384615385" as="geometry" />
        </mxCell>
        <mxCell id="BmNrjYbsliHYKkBvN_70-46" value="" style="group" parent="BmNrjYbsliHYKkBvN_70-21" vertex="1" connectable="0">
          <mxGeometry x="60" y="40" width="390" height="220" as="geometry" />
        </mxCell>
        <mxCell id="BmNrjYbsliHYKkBvN_70-47" value="" style="shape=folder;fontStyle=1;spacingTop=10;tabWidth=100;tabHeight=20;tabPosition=left;html=1;whiteSpace=wrap;" parent="BmNrjYbsliHYKkBvN_70-46" vertex="1">
          <mxGeometry width="390" height="220" as="geometry" />
        </mxCell>
        <mxCell id="BmNrjYbsliHYKkBvN_70-48" value="&lt;span style=&quot;text-wrap: wrap;&quot;&gt;api&lt;/span&gt;" style="text;align=center;fontStyle=1;verticalAlign=middle;spacingLeft=3;spacingRight=3;strokeColor=none;rotatable=0;points=[[0,0.5],[1,0.5]];portConstraint=eastwest;html=1;" parent="BmNrjYbsliHYKkBvN_70-46" vertex="1">
          <mxGeometry x="-20.00347826086957" y="0.0015384615384608225" width="135.65217391304344" height="16.923076923076923" as="geometry" />
        </mxCell>
        <mxCell id="BmNrjYbsliHYKkBvN_70-49" value="" style="group" parent="BmNrjYbsliHYKkBvN_70-46" vertex="1" connectable="0">
          <mxGeometry x="40" y="60" width="130" height="100" as="geometry" />
        </mxCell>
        <mxCell id="BmNrjYbsliHYKkBvN_70-50" value="" style="shape=folder;fontStyle=1;spacingTop=10;tabWidth=100;tabHeight=20;tabPosition=left;html=1;whiteSpace=wrap;" parent="BmNrjYbsliHYKkBvN_70-49" vertex="1">
          <mxGeometry width="130" height="100" as="geometry" />
        </mxCell>
        <mxCell id="BmNrjYbsliHYKkBvN_70-51" value="&lt;span style=&quot;text-wrap: wrap;&quot;&gt;router&lt;/span&gt;" style="text;align=center;fontStyle=1;verticalAlign=middle;spacingLeft=3;spacingRight=3;strokeColor=none;rotatable=0;points=[[0,0.5],[1,0.5]];portConstraint=eastwest;html=1;" parent="BmNrjYbsliHYKkBvN_70-49" vertex="1">
          <mxGeometry x="20.005000000000003" y="4.545454545454545" width="65" height="9.09090909090909" as="geometry" />
        </mxCell>
        <mxCell id="BmNrjYbsliHYKkBvN_70-52" value="" style="group" parent="BmNrjYbsliHYKkBvN_70-46" vertex="1" connectable="0">
          <mxGeometry x="210" y="60" width="130" height="100" as="geometry" />
        </mxCell>
        <mxCell id="BmNrjYbsliHYKkBvN_70-53" value="" style="shape=folder;fontStyle=1;spacingTop=10;tabWidth=100;tabHeight=20;tabPosition=left;html=1;whiteSpace=wrap;" parent="BmNrjYbsliHYKkBvN_70-52" vertex="1">
          <mxGeometry width="130" height="100" as="geometry" />
        </mxCell>
        <mxCell id="BmNrjYbsliHYKkBvN_70-54" value="&lt;span style=&quot;text-wrap: wrap;&quot;&gt;schema&lt;/span&gt;" style="text;align=center;fontStyle=1;verticalAlign=middle;spacingLeft=3;spacingRight=3;strokeColor=none;rotatable=0;points=[[0,0.5],[1,0.5]];portConstraint=eastwest;html=1;" parent="BmNrjYbsliHYKkBvN_70-52" vertex="1">
          <mxGeometry x="20.005000000000003" y="4.545454545454545" width="65" height="9.09090909090909" as="geometry" />
        </mxCell>
        <mxCell id="BmNrjYbsliHYKkBvN_70-27" value="" style="group" parent="BmNrjYbsliHYKkBvN_70-21" vertex="1" connectable="0">
          <mxGeometry x="560" y="110" width="130" height="100" as="geometry" />
        </mxCell>
        <mxCell id="BmNrjYbsliHYKkBvN_70-28" value="" style="shape=folder;fontStyle=1;spacingTop=10;tabWidth=100;tabHeight=20;tabPosition=left;html=1;whiteSpace=wrap;" parent="BmNrjYbsliHYKkBvN_70-27" vertex="1">
          <mxGeometry width="130" height="100" as="geometry" />
        </mxCell>
        <mxCell id="BmNrjYbsliHYKkBvN_70-29" value="&lt;span style=&quot;text-wrap: wrap;&quot;&gt;configuration&lt;/span&gt;" style="text;align=center;fontStyle=1;verticalAlign=middle;spacingLeft=3;spacingRight=3;strokeColor=none;rotatable=0;points=[[0,0.5],[1,0.5]];portConstraint=eastwest;html=1;" parent="BmNrjYbsliHYKkBvN_70-27" vertex="1">
          <mxGeometry x="20.005000000000003" y="4.545454545454545" width="65" height="9.09090909090909" as="geometry" />
        </mxCell>
        <mxCell id="BmNrjYbsliHYKkBvN_70-34" value="" style="group" parent="BmNrjYbsliHYKkBvN_70-21" vertex="1" connectable="0">
          <mxGeometry x="117" y="300" width="510" height="320" as="geometry" />
        </mxCell>
        <mxCell id="BmNrjYbsliHYKkBvN_70-35" value="" style="shape=folder;fontStyle=1;spacingTop=10;tabWidth=100;tabHeight=20;tabPosition=left;html=1;whiteSpace=wrap;" parent="BmNrjYbsliHYKkBvN_70-34" vertex="1">
          <mxGeometry width="510" height="320" as="geometry" />
        </mxCell>
        <mxCell id="BmNrjYbsliHYKkBvN_70-36" value="&lt;span style=&quot;text-wrap: wrap;&quot;&gt;repository\SQL&lt;/span&gt;" style="text;align=center;fontStyle=1;verticalAlign=middle;spacingLeft=3;spacingRight=3;strokeColor=none;rotatable=0;points=[[0,0.5],[1,0.5]];portConstraint=eastwest;html=1;" parent="BmNrjYbsliHYKkBvN_70-34" vertex="1">
          <mxGeometry x="-39.99839464882944" y="0.0022377622377611965" width="177.39130434782604" height="24.615384615384617" as="geometry" />
        </mxCell>
        <mxCell id="BmNrjYbsliHYKkBvN_70-37" value="" style="group" parent="BmNrjYbsliHYKkBvN_70-34" vertex="1" connectable="0">
          <mxGeometry x="180" y="65" width="130" height="100" as="geometry" />
        </mxCell>
        <mxCell id="BmNrjYbsliHYKkBvN_70-38" value="" style="shape=folder;fontStyle=1;spacingTop=10;tabWidth=100;tabHeight=20;tabPosition=left;html=1;whiteSpace=wrap;" parent="BmNrjYbsliHYKkBvN_70-37" vertex="1">
          <mxGeometry width="130" height="100" as="geometry" />
        </mxCell>
        <mxCell id="BmNrjYbsliHYKkBvN_70-39" value="&lt;span style=&quot;text-wrap: wrap;&quot;&gt;dao&lt;/span&gt;" style="text;align=center;fontStyle=1;verticalAlign=middle;spacingLeft=3;spacingRight=3;strokeColor=none;rotatable=0;points=[[0,0.5],[1,0.5]];portConstraint=eastwest;html=1;" parent="BmNrjYbsliHYKkBvN_70-37" vertex="1">
          <mxGeometry x="20.005000000000003" y="4.545454545454545" width="65" height="9.09090909090909" as="geometry" />
        </mxCell>
        <mxCell id="BmNrjYbsliHYKkBvN_70-40" value="" style="group" parent="BmNrjYbsliHYKkBvN_70-34" vertex="1" connectable="0">
          <mxGeometry x="23" y="65" width="130" height="100" as="geometry" />
        </mxCell>
        <mxCell id="BmNrjYbsliHYKkBvN_70-41" value="" style="shape=folder;fontStyle=1;spacingTop=10;tabWidth=100;tabHeight=20;tabPosition=left;html=1;whiteSpace=wrap;" parent="BmNrjYbsliHYKkBvN_70-40" vertex="1">
          <mxGeometry width="130" height="100" as="geometry" />
        </mxCell>
        <mxCell id="BmNrjYbsliHYKkBvN_70-42" value="&lt;span style=&quot;text-wrap: wrap;&quot;&gt;adapter&lt;/span&gt;" style="text;align=center;fontStyle=1;verticalAlign=middle;spacingLeft=3;spacingRight=3;strokeColor=none;rotatable=0;points=[[0,0.5],[1,0.5]];portConstraint=eastwest;html=1;" parent="BmNrjYbsliHYKkBvN_70-40" vertex="1">
          <mxGeometry x="20.005000000000003" y="4.545454545454545" width="65" height="9.09090909090909" as="geometry" />
        </mxCell>
        <mxCell id="BmNrjYbsliHYKkBvN_70-43" value="" style="group" parent="BmNrjYbsliHYKkBvN_70-34" vertex="1" connectable="0">
          <mxGeometry x="360" y="65" width="130" height="100" as="geometry" />
        </mxCell>
        <mxCell id="BmNrjYbsliHYKkBvN_70-44" value="" style="shape=folder;fontStyle=1;spacingTop=10;tabWidth=100;tabHeight=20;tabPosition=left;html=1;whiteSpace=wrap;" parent="BmNrjYbsliHYKkBvN_70-43" vertex="1">
          <mxGeometry width="130" height="100" as="geometry" />
        </mxCell>
        <mxCell id="BmNrjYbsliHYKkBvN_70-45" value="&lt;span style=&quot;text-wrap: wrap;&quot;&gt;model&lt;/span&gt;" style="text;align=center;fontStyle=1;verticalAlign=middle;spacingLeft=3;spacingRight=3;strokeColor=none;rotatable=0;points=[[0,0.5],[1,0.5]];portConstraint=eastwest;html=1;" parent="BmNrjYbsliHYKkBvN_70-43" vertex="1">
          <mxGeometry x="20.005000000000003" y="4.545454545454545" width="65" height="9.09090909090909" as="geometry" />
        </mxCell>
        <mxCell id="kVieWD78zredjpgZStoI-5" value="" style="endArrow=open;endSize=12;dashed=1;html=1;rounded=0;fontFamily=Helvetica;fontSize=12;fontColor=default;exitX=0;exitY=0;exitDx=130;exitDy=60;exitPerimeter=0;entryX=0;entryY=0;entryDx=0;entryDy=60;entryPerimeter=0;" edge="1" parent="BmNrjYbsliHYKkBvN_70-34" source="BmNrjYbsliHYKkBvN_70-38" target="BmNrjYbsliHYKkBvN_70-44">
          <mxGeometry width="160" relative="1" as="geometry">
            <mxPoint x="250" y="-375" as="sourcePoint" />
            <mxPoint x="370" y="-375" as="targetPoint" />
          </mxGeometry>
        </mxCell>
        <mxCell id="kVieWD78zredjpgZStoI-3" value="" style="endArrow=open;endSize=12;dashed=1;html=1;rounded=0;fontFamily=Helvetica;fontSize=12;fontColor=default;exitX=0.378;exitY=1.02;exitDx=0;exitDy=0;exitPerimeter=0;entryX=0;entryY=0;entryDx=50;entryDy=0;entryPerimeter=0;edgeStyle=elbowEdgeStyle;elbow=vertical;" edge="1" parent="BmNrjYbsliHYKkBvN_70-21" source="BmNrjYbsliHYKkBvN_70-28" target="BmNrjYbsliHYKkBvN_70-38">
          <mxGeometry width="160" relative="1" as="geometry">
            <mxPoint x="320" y="-100" as="sourcePoint" />
            <mxPoint x="440" y="-100" as="targetPoint" />
            <Array as="points">
              <mxPoint x="470" y="300" />
            </Array>
          </mxGeometry>
        </mxCell>
        <mxCell id="kVieWD78zredjpgZStoI-4" value="" style="endArrow=open;endSize=12;dashed=1;html=1;rounded=0;fontFamily=Helvetica;fontSize=12;fontColor=default;exitX=0.141;exitY=1.031;exitDx=0;exitDy=0;exitPerimeter=0;entryX=0.675;entryY=-0.022;entryDx=0;entryDy=0;entryPerimeter=0;edgeStyle=elbowEdgeStyle;elbow=vertical;" edge="1" parent="BmNrjYbsliHYKkBvN_70-21" source="BmNrjYbsliHYKkBvN_70-28" target="BmNrjYbsliHYKkBvN_70-41">
          <mxGeometry width="160" relative="1" as="geometry">
            <mxPoint x="330" y="-90" as="sourcePoint" />
            <mxPoint x="450" y="-90" as="targetPoint" />
            <Array as="points">
              <mxPoint x="390" y="290" />
            </Array>
          </mxGeometry>
        </mxCell>
        <mxCell id="BmNrjYbsliHYKkBvN_70-55" value="" style="endArrow=open;endSize=12;dashed=1;html=1;rounded=0;fontFamily=Helvetica;fontSize=12;fontColor=default;exitX=0;exitY=0;exitDx=130;exitDy=60;exitPerimeter=0;entryX=0;entryY=0;entryDx=0;entryDy=120;entryPerimeter=0;" parent="kVieWD78zredjpgZStoI-10" source="BmNrjYbsliHYKkBvN_70-10" target="BmNrjYbsliHYKkBvN_70-13" edge="1">
          <mxGeometry width="160" relative="1" as="geometry">
            <mxPoint x="605" y="70" as="sourcePoint" />
            <mxPoint x="765" y="70" as="targetPoint" />
          </mxGeometry>
        </mxCell>
        <mxCell id="BmNrjYbsliHYKkBvN_70-57" value="" style="endArrow=open;endSize=12;dashed=1;html=1;rounded=0;fontFamily=Helvetica;fontSize=12;fontColor=default;edgeStyle=elbowEdgeStyle;elbow=vertical;exitX=0.5;exitY=1;exitDx=0;exitDy=0;exitPerimeter=0;entryX=0;entryY=0;entryDx=50;entryDy=0;entryPerimeter=0;" parent="kVieWD78zredjpgZStoI-10" source="BmNrjYbsliHYKkBvN_70-10" target="BmNrjYbsliHYKkBvN_70-28" edge="1">
          <mxGeometry width="160" relative="1" as="geometry">
            <mxPoint x="605" y="290" as="sourcePoint" />
            <mxPoint x="650" y="390" as="targetPoint" />
            <Array as="points">
              <mxPoint x="685" y="360" />
            </Array>
          </mxGeometry>
        </mxCell>
        <mxCell id="BmNrjYbsliHYKkBvN_70-61" value="" style="endArrow=open;endSize=12;dashed=1;html=1;rounded=0;fontFamily=Helvetica;fontSize=12;fontColor=default;exitX=0.5;exitY=1;exitDx=0;exitDy=0;exitPerimeter=0;entryX=0.313;entryY=0.006;entryDx=0;entryDy=0;entryPerimeter=0;" parent="kVieWD78zredjpgZStoI-10" source="BmNrjYbsliHYKkBvN_70-16" target="BmNrjYbsliHYKkBvN_70-44" edge="1">
          <mxGeometry width="160" relative="1" as="geometry">
            <mxPoint x="565" y="240" as="sourcePoint" />
            <mxPoint x="685" y="240" as="targetPoint" />
          </mxGeometry>
        </mxCell>
        <mxCell id="BmNrjYbsliHYKkBvN_70-64" style="edgeStyle=elbowEdgeStyle;rounded=0;orthogonalLoop=1;jettySize=auto;html=1;exitX=0;exitY=0;exitDx=245;exitDy=20;exitPerimeter=0;fontFamily=Helvetica;fontSize=12;fontColor=default;elbow=vertical;strokeColor=none;entryX=0.501;entryY=-0.358;entryDx=0;entryDy=0;entryPerimeter=0;" parent="kVieWD78zredjpgZStoI-10" source="BmNrjYbsliHYKkBvN_70-13" target="BmNrjYbsliHYKkBvN_70-4" edge="1">
          <mxGeometry relative="1" as="geometry">
            <mxPoint x="865" y="30" as="targetPoint" />
          </mxGeometry>
        </mxCell>
        <mxCell id="BmNrjYbsliHYKkBvN_70-65" value="" style="endArrow=open;endSize=12;dashed=1;html=1;rounded=0;fontFamily=Helvetica;fontSize=12;fontColor=default;edgeStyle=elbowEdgeStyle;elbow=vertical;exitX=0.672;exitY=-0.025;exitDx=0;exitDy=0;exitPerimeter=0;entryX=0.629;entryY=0.013;entryDx=0;entryDy=0;entryPerimeter=0;" parent="kVieWD78zredjpgZStoI-10" source="BmNrjYbsliHYKkBvN_70-16" target="BmNrjYbsliHYKkBvN_70-3" edge="1">
          <mxGeometry width="160" relative="1" as="geometry">
            <mxPoint x="500" y="280" as="sourcePoint" />
            <mxPoint x="885" y="480" as="targetPoint" />
            <Array as="points">
              <mxPoint x="595" y="80" />
            </Array>
          </mxGeometry>
        </mxCell>
        <mxCell id="BmNrjYbsliHYKkBvN_70-66" value="" style="endArrow=open;endSize=12;dashed=1;html=1;rounded=0;fontFamily=Helvetica;fontSize=12;fontColor=default;exitX=0;exitY=0;exitDx=0;exitDy=60;exitPerimeter=0;entryX=0;entryY=0;entryDx=0;entryDy=170;entryPerimeter=0;edgeStyle=elbowEdgeStyle;" parent="kVieWD78zredjpgZStoI-10" source="BmNrjYbsliHYKkBvN_70-50" target="BmNrjYbsliHYKkBvN_70-1" edge="1">
          <mxGeometry width="160" relative="1" as="geometry">
            <mxPoint x="145" y="510" as="sourcePoint" />
            <mxPoint x="265" y="510" as="targetPoint" />
            <Array as="points">
              <mxPoint x="155" y="410" />
            </Array>
          </mxGeometry>
        </mxCell>
        <mxCell id="kVieWD78zredjpgZStoI-2" value="" style="endArrow=open;endSize=12;dashed=1;html=1;rounded=0;fontFamily=Helvetica;fontSize=12;fontColor=default;exitX=0.642;exitY=-0.009;exitDx=0;exitDy=0;exitPerimeter=0;entryX=0.75;entryY=1;entryDx=0;entryDy=0;entryPerimeter=0;edgeStyle=elbowEdgeStyle;elbow=vertical;" edge="1" parent="kVieWD78zredjpgZStoI-10" source="BmNrjYbsliHYKkBvN_70-28" target="BmNrjYbsliHYKkBvN_70-16">
          <mxGeometry width="160" relative="1" as="geometry">
            <mxPoint x="575" y="250" as="sourcePoint" />
            <mxPoint x="695" y="250" as="targetPoint" />
            <Array as="points">
              <mxPoint x="865" y="310" />
            </Array>
          </mxGeometry>
        </mxCell>
        <mxCell id="kVieWD78zredjpgZStoI-6" value="" style="endArrow=open;endSize=12;dashed=1;html=1;rounded=0;fontFamily=Helvetica;fontSize=12;fontColor=default;exitX=0;exitY=0;exitDx=115;exitDy=20;exitPerimeter=0;entryX=0.25;entryY=1;entryDx=0;entryDy=0;entryPerimeter=0;edgeStyle=elbowEdgeStyle;elbow=vertical;" edge="1" parent="kVieWD78zredjpgZStoI-10" source="BmNrjYbsliHYKkBvN_70-38" target="BmNrjYbsliHYKkBvN_70-16">
          <mxGeometry width="160" relative="1" as="geometry">
            <mxPoint x="615" y="290" as="sourcePoint" />
            <mxPoint x="735" y="290" as="targetPoint" />
            <Array as="points">
              <mxPoint x="705" y="640" />
            </Array>
          </mxGeometry>
        </mxCell>
      </root>
    </mxGraphModel>
  </diagram>
  <diagram id="O7MnHukLIkUb6EUGqHHE" name="Diagrama de Modelo de datos">
    <mxGraphModel dx="1062" dy="612" grid="1" gridSize="10" guides="1" tooltips="1" connect="1" arrows="1" fold="1" page="1" pageScale="1" pageWidth="1200" pageHeight="1600" math="0" shadow="0">
      <root>
        <mxCell id="0" />
        <mxCell id="1" parent="0" />
        <mxCell id="P-C7prF8rhKOiH9UQiEX-1" value="" style="edgeStyle=entityRelationEdgeStyle;endArrow=ERmany;startArrow=ERone;endFill=0;startFill=0;" edge="1" parent="1" source="P-C7prF8rhKOiH9UQiEX-24" target="P-C7prF8rhKOiH9UQiEX-7">
          <mxGeometry width="100" height="100" relative="1" as="geometry">
            <mxPoint x="340" y="720" as="sourcePoint" />
            <mxPoint x="440" y="620" as="targetPoint" />
          </mxGeometry>
        </mxCell>
        <mxCell id="P-C7prF8rhKOiH9UQiEX-2" value="" style="edgeStyle=entityRelationEdgeStyle;endArrow=ERmany;startArrow=ERone;endFill=0;startFill=0;" edge="1" parent="1" source="P-C7prF8rhKOiH9UQiEX-4" target="P-C7prF8rhKOiH9UQiEX-17">
          <mxGeometry width="100" height="100" relative="1" as="geometry">
            <mxPoint x="400" y="180" as="sourcePoint" />
            <mxPoint x="460" y="205" as="targetPoint" />
          </mxGeometry>
        </mxCell>
        <mxCell id="P-C7prF8rhKOiH9UQiEX-3" value="Account" style="shape=table;startSize=30;container=1;collapsible=1;childLayout=tableLayout;fixedRows=1;rowLines=0;fontStyle=1;align=center;resizeLast=1;" vertex="1" parent="1">
          <mxGeometry x="450" y="120" width="300" height="190" as="geometry" />
        </mxCell>
        <mxCell id="P-C7prF8rhKOiH9UQiEX-4" value="" style="shape=partialRectangle;collapsible=0;dropTarget=0;pointerEvents=0;fillColor=none;points=[[0,0.5],[1,0.5]];portConstraint=eastwest;top=0;left=0;right=0;bottom=1;" vertex="1" parent="P-C7prF8rhKOiH9UQiEX-3">
          <mxGeometry y="30" width="300" height="30" as="geometry" />
        </mxCell>
        <mxCell id="P-C7prF8rhKOiH9UQiEX-5" value="PK" style="shape=partialRectangle;overflow=hidden;connectable=0;fillColor=none;top=0;left=0;bottom=0;right=0;fontStyle=1;" vertex="1" parent="P-C7prF8rhKOiH9UQiEX-4">
          <mxGeometry width="30" height="30" as="geometry">
            <mxRectangle width="30" height="30" as="alternateBounds" />
          </mxGeometry>
        </mxCell>
        <mxCell id="P-C7prF8rhKOiH9UQiEX-6" value="id SERIAL PRIMARY KEY " style="shape=partialRectangle;overflow=hidden;connectable=0;fillColor=none;top=0;left=0;bottom=0;right=0;align=left;spacingLeft=6;fontStyle=5;" vertex="1" parent="P-C7prF8rhKOiH9UQiEX-4">
          <mxGeometry x="30" width="270" height="30" as="geometry">
            <mxRectangle width="270" height="30" as="alternateBounds" />
          </mxGeometry>
        </mxCell>
        <mxCell id="P-C7prF8rhKOiH9UQiEX-7" value="" style="shape=partialRectangle;collapsible=0;dropTarget=0;pointerEvents=0;fillColor=none;points=[[0,0.5],[1,0.5]];portConstraint=eastwest;top=0;left=0;right=0;bottom=0;" vertex="1" parent="P-C7prF8rhKOiH9UQiEX-3">
          <mxGeometry y="60" width="300" height="30" as="geometry" />
        </mxCell>
        <mxCell id="P-C7prF8rhKOiH9UQiEX-8" value="FK1" style="shape=partialRectangle;overflow=hidden;connectable=0;fillColor=none;top=0;left=0;bottom=0;right=0;" vertex="1" parent="P-C7prF8rhKOiH9UQiEX-7">
          <mxGeometry width="30" height="30" as="geometry">
            <mxRectangle width="30" height="30" as="alternateBounds" />
          </mxGeometry>
        </mxCell>
        <mxCell id="P-C7prF8rhKOiH9UQiEX-9" value="user_id VARCHAR(50) NOT NULL" style="shape=partialRectangle;overflow=hidden;connectable=0;fillColor=none;top=0;left=0;bottom=0;right=0;align=left;spacingLeft=6;" vertex="1" parent="P-C7prF8rhKOiH9UQiEX-7">
          <mxGeometry x="30" width="270" height="30" as="geometry">
            <mxRectangle width="270" height="30" as="alternateBounds" />
          </mxGeometry>
        </mxCell>
        <mxCell id="P-C7prF8rhKOiH9UQiEX-10" value="" style="shape=partialRectangle;collapsible=0;dropTarget=0;pointerEvents=0;fillColor=none;points=[[0,0.5],[1,0.5]];portConstraint=eastwest;top=0;left=0;right=0;bottom=0;" vertex="1" parent="P-C7prF8rhKOiH9UQiEX-3">
          <mxGeometry y="90" width="300" height="30" as="geometry" />
        </mxCell>
        <mxCell id="P-C7prF8rhKOiH9UQiEX-11" value="" style="shape=partialRectangle;overflow=hidden;connectable=0;fillColor=none;top=0;left=0;bottom=0;right=0;" vertex="1" parent="P-C7prF8rhKOiH9UQiEX-10">
          <mxGeometry width="30" height="30" as="geometry">
            <mxRectangle width="30" height="30" as="alternateBounds" />
          </mxGeometry>
        </mxCell>
        <mxCell id="P-C7prF8rhKOiH9UQiEX-12" value="account_type VARCHAR(20) NOT NULL" style="shape=partialRectangle;overflow=hidden;connectable=0;fillColor=none;top=0;left=0;bottom=0;right=0;align=left;spacingLeft=6;" vertex="1" parent="P-C7prF8rhKOiH9UQiEX-10">
          <mxGeometry x="30" width="270" height="30" as="geometry">
            <mxRectangle width="270" height="30" as="alternateBounds" />
          </mxGeometry>
        </mxCell>
        <mxCell id="P-C7prF8rhKOiH9UQiEX-49" style="shape=partialRectangle;collapsible=0;dropTarget=0;pointerEvents=0;fillColor=none;points=[[0,0.5],[1,0.5]];portConstraint=eastwest;top=0;left=0;right=0;bottom=0;" vertex="1" parent="P-C7prF8rhKOiH9UQiEX-3">
          <mxGeometry y="120" width="300" height="30" as="geometry" />
        </mxCell>
        <mxCell id="P-C7prF8rhKOiH9UQiEX-50" style="shape=partialRectangle;overflow=hidden;connectable=0;fillColor=none;top=0;left=0;bottom=0;right=0;" vertex="1" parent="P-C7prF8rhKOiH9UQiEX-49">
          <mxGeometry width="30" height="30" as="geometry">
            <mxRectangle width="30" height="30" as="alternateBounds" />
          </mxGeometry>
        </mxCell>
        <mxCell id="P-C7prF8rhKOiH9UQiEX-51" style="shape=partialRectangle;overflow=hidden;connectable=0;fillColor=none;top=0;left=0;bottom=0;right=0;align=left;spacingLeft=6;" vertex="1" parent="P-C7prF8rhKOiH9UQiEX-49">
          <mxGeometry x="30" width="270" height="30" as="geometry">
            <mxRectangle width="270" height="30" as="alternateBounds" />
          </mxGeometry>
        </mxCell>
        <mxCell id="P-C7prF8rhKOiH9UQiEX-52" style="shape=partialRectangle;collapsible=0;dropTarget=0;pointerEvents=0;fillColor=none;points=[[0,0.5],[1,0.5]];portConstraint=eastwest;top=0;left=0;right=0;bottom=0;" vertex="1" parent="P-C7prF8rhKOiH9UQiEX-3">
          <mxGeometry y="150" width="300" height="30" as="geometry" />
        </mxCell>
        <mxCell id="P-C7prF8rhKOiH9UQiEX-53" style="shape=partialRectangle;overflow=hidden;connectable=0;fillColor=none;top=0;left=0;bottom=0;right=0;" vertex="1" parent="P-C7prF8rhKOiH9UQiEX-52">
          <mxGeometry width="30" height="30" as="geometry">
            <mxRectangle width="30" height="30" as="alternateBounds" />
          </mxGeometry>
        </mxCell>
        <mxCell id="P-C7prF8rhKOiH9UQiEX-54" style="shape=partialRectangle;overflow=hidden;connectable=0;fillColor=none;top=0;left=0;bottom=0;right=0;align=left;spacingLeft=6;" vertex="1" parent="P-C7prF8rhKOiH9UQiEX-52">
          <mxGeometry x="30" width="270" height="30" as="geometry">
            <mxRectangle width="270" height="30" as="alternateBounds" />
          </mxGeometry>
        </mxCell>
        <mxCell id="P-C7prF8rhKOiH9UQiEX-13" value="Transaction" style="shape=table;startSize=30;container=1;collapsible=1;childLayout=tableLayout;fixedRows=1;rowLines=0;fontStyle=1;align=center;resizeLast=1;" vertex="1" parent="1">
          <mxGeometry x="460" y="370" width="490" height="190" as="geometry" />
        </mxCell>
        <mxCell id="P-C7prF8rhKOiH9UQiEX-14" value="" style="shape=partialRectangle;collapsible=0;dropTarget=0;pointerEvents=0;fillColor=none;points=[[0,0.5],[1,0.5]];portConstraint=eastwest;top=0;left=0;right=0;bottom=1;" vertex="1" parent="P-C7prF8rhKOiH9UQiEX-13">
          <mxGeometry y="30" width="490" height="30" as="geometry" />
        </mxCell>
        <mxCell id="P-C7prF8rhKOiH9UQiEX-15" value="PK" style="shape=partialRectangle;overflow=hidden;connectable=0;fillColor=none;top=0;left=0;bottom=0;right=0;fontStyle=1;" vertex="1" parent="P-C7prF8rhKOiH9UQiEX-14">
          <mxGeometry width="30" height="30" as="geometry">
            <mxRectangle width="30" height="30" as="alternateBounds" />
          </mxGeometry>
        </mxCell>
        <mxCell id="P-C7prF8rhKOiH9UQiEX-16" value="id SERIAL PRIMARY KEY " style="shape=partialRectangle;overflow=hidden;connectable=0;fillColor=none;top=0;left=0;bottom=0;right=0;align=left;spacingLeft=6;fontStyle=5;" vertex="1" parent="P-C7prF8rhKOiH9UQiEX-14">
          <mxGeometry x="30" width="460" height="30" as="geometry">
            <mxRectangle width="460" height="30" as="alternateBounds" />
          </mxGeometry>
        </mxCell>
        <mxCell id="P-C7prF8rhKOiH9UQiEX-17" value="" style="shape=partialRectangle;collapsible=0;dropTarget=0;pointerEvents=0;fillColor=none;points=[[0,0.5],[1,0.5]];portConstraint=eastwest;top=0;left=0;right=0;bottom=0;" vertex="1" parent="P-C7prF8rhKOiH9UQiEX-13">
          <mxGeometry y="60" width="490" height="30" as="geometry" />
        </mxCell>
        <mxCell id="P-C7prF8rhKOiH9UQiEX-18" value="FK1" style="shape=partialRectangle;overflow=hidden;connectable=0;fillColor=none;top=0;left=0;bottom=0;right=0;" vertex="1" parent="P-C7prF8rhKOiH9UQiEX-17">
          <mxGeometry width="30" height="30" as="geometry">
            <mxRectangle width="30" height="30" as="alternateBounds" />
          </mxGeometry>
        </mxCell>
        <mxCell id="P-C7prF8rhKOiH9UQiEX-19" value="source_account INTEGER NOT NULL" style="shape=partialRectangle;overflow=hidden;connectable=0;fillColor=none;top=0;left=0;bottom=0;right=0;align=left;spacingLeft=6;" vertex="1" parent="P-C7prF8rhKOiH9UQiEX-17">
          <mxGeometry x="30" width="460" height="30" as="geometry">
            <mxRectangle width="460" height="30" as="alternateBounds" />
          </mxGeometry>
        </mxCell>
        <mxCell id="P-C7prF8rhKOiH9UQiEX-20" value="" style="shape=partialRectangle;collapsible=0;dropTarget=0;pointerEvents=0;fillColor=none;points=[[0,0.5],[1,0.5]];portConstraint=eastwest;top=0;left=0;right=0;bottom=0;" vertex="1" parent="P-C7prF8rhKOiH9UQiEX-13">
          <mxGeometry y="90" width="490" height="30" as="geometry" />
        </mxCell>
        <mxCell id="P-C7prF8rhKOiH9UQiEX-21" value="" style="shape=partialRectangle;overflow=hidden;connectable=0;fillColor=none;top=0;left=0;bottom=0;right=0;" vertex="1" parent="P-C7prF8rhKOiH9UQiEX-20">
          <mxGeometry width="30" height="30" as="geometry">
            <mxRectangle width="30" height="30" as="alternateBounds" />
          </mxGeometry>
        </mxCell>
        <mxCell id="P-C7prF8rhKOiH9UQiEX-22" value="destination_account INTEGER NOT NULL" style="shape=partialRectangle;overflow=hidden;connectable=0;fillColor=none;top=0;left=0;bottom=0;right=0;align=left;spacingLeft=6;" vertex="1" parent="P-C7prF8rhKOiH9UQiEX-20">
          <mxGeometry x="30" width="460" height="30" as="geometry">
            <mxRectangle width="460" height="30" as="alternateBounds" />
          </mxGeometry>
        </mxCell>
        <mxCell id="P-C7prF8rhKOiH9UQiEX-57" style="shape=partialRectangle;collapsible=0;dropTarget=0;pointerEvents=0;fillColor=none;points=[[0,0.5],[1,0.5]];portConstraint=eastwest;top=0;left=0;right=0;bottom=0;" vertex="1" parent="P-C7prF8rhKOiH9UQiEX-13">
          <mxGeometry y="120" width="490" height="30" as="geometry" />
        </mxCell>
        <mxCell id="P-C7prF8rhKOiH9UQiEX-58" style="shape=partialRectangle;overflow=hidden;connectable=0;fillColor=none;top=0;left=0;bottom=0;right=0;" vertex="1" parent="P-C7prF8rhKOiH9UQiEX-57">
          <mxGeometry width="30" height="30" as="geometry">
            <mxRectangle width="30" height="30" as="alternateBounds" />
          </mxGeometry>
        </mxCell>
        <mxCell id="P-C7prF8rhKOiH9UQiEX-59" style="shape=partialRectangle;overflow=hidden;connectable=0;fillColor=none;top=0;left=0;bottom=0;right=0;align=left;spacingLeft=6;" vertex="1" parent="P-C7prF8rhKOiH9UQiEX-57">
          <mxGeometry x="30" width="460" height="30" as="geometry">
            <mxRectangle width="460" height="30" as="alternateBounds" />
          </mxGeometry>
        </mxCell>
        <mxCell id="P-C7prF8rhKOiH9UQiEX-60" style="shape=partialRectangle;collapsible=0;dropTarget=0;pointerEvents=0;fillColor=none;points=[[0,0.5],[1,0.5]];portConstraint=eastwest;top=0;left=0;right=0;bottom=0;" vertex="1" parent="P-C7prF8rhKOiH9UQiEX-13">
          <mxGeometry y="150" width="490" height="30" as="geometry" />
        </mxCell>
        <mxCell id="P-C7prF8rhKOiH9UQiEX-61" style="shape=partialRectangle;overflow=hidden;connectable=0;fillColor=none;top=0;left=0;bottom=0;right=0;" vertex="1" parent="P-C7prF8rhKOiH9UQiEX-60">
          <mxGeometry width="30" height="30" as="geometry">
            <mxRectangle width="30" height="30" as="alternateBounds" />
          </mxGeometry>
        </mxCell>
        <mxCell id="P-C7prF8rhKOiH9UQiEX-62" style="shape=partialRectangle;overflow=hidden;connectable=0;fillColor=none;top=0;left=0;bottom=0;right=0;align=left;spacingLeft=6;" vertex="1" parent="P-C7prF8rhKOiH9UQiEX-60">
          <mxGeometry x="30" width="460" height="30" as="geometry">
            <mxRectangle width="460" height="30" as="alternateBounds" />
          </mxGeometry>
        </mxCell>
        <mxCell id="P-C7prF8rhKOiH9UQiEX-23" value="User" style="shape=table;startSize=30;container=1;collapsible=1;childLayout=tableLayout;fixedRows=1;rowLines=0;fontStyle=1;align=center;resizeLast=1;swimlaneFillColor=none;" vertex="1" parent="1">
          <mxGeometry x="120" y="120" width="250" height="160" as="geometry">
            <mxRectangle x="120" y="120" width="100" height="30" as="alternateBounds" />
          </mxGeometry>
        </mxCell>
        <mxCell id="P-C7prF8rhKOiH9UQiEX-24" value="" style="shape=partialRectangle;collapsible=0;dropTarget=0;pointerEvents=0;fillColor=none;points=[[0,0.5],[1,0.5]];portConstraint=eastwest;top=0;left=0;right=0;bottom=1;" vertex="1" parent="P-C7prF8rhKOiH9UQiEX-23">
          <mxGeometry y="30" width="250" height="30" as="geometry" />
        </mxCell>
        <mxCell id="P-C7prF8rhKOiH9UQiEX-25" value="PK" style="shape=partialRectangle;overflow=hidden;connectable=0;fillColor=none;top=0;left=0;bottom=0;right=0;fontStyle=1;" vertex="1" parent="P-C7prF8rhKOiH9UQiEX-24">
          <mxGeometry width="30" height="30" as="geometry">
            <mxRectangle width="30" height="30" as="alternateBounds" />
          </mxGeometry>
        </mxCell>
        <mxCell id="P-C7prF8rhKOiH9UQiEX-26" value="id VARCHAR(50) PRIMARY KEY " style="shape=partialRectangle;overflow=hidden;connectable=0;fillColor=none;top=0;left=0;bottom=0;right=0;align=left;spacingLeft=6;fontStyle=5;" vertex="1" parent="P-C7prF8rhKOiH9UQiEX-24">
          <mxGeometry x="30" width="220" height="30" as="geometry">
            <mxRectangle width="220" height="30" as="alternateBounds" />
          </mxGeometry>
        </mxCell>
        <mxCell id="P-C7prF8rhKOiH9UQiEX-27" value="" style="shape=partialRectangle;collapsible=0;dropTarget=0;pointerEvents=0;fillColor=none;points=[[0,0.5],[1,0.5]];portConstraint=eastwest;top=0;left=0;right=0;bottom=0;" vertex="1" parent="P-C7prF8rhKOiH9UQiEX-23">
          <mxGeometry y="60" width="250" height="30" as="geometry" />
        </mxCell>
        <mxCell id="P-C7prF8rhKOiH9UQiEX-28" value="" style="shape=partialRectangle;overflow=hidden;connectable=0;fillColor=none;top=0;left=0;bottom=0;right=0;" vertex="1" parent="P-C7prF8rhKOiH9UQiEX-27">
          <mxGeometry width="30" height="30" as="geometry">
            <mxRectangle width="30" height="30" as="alternateBounds" />
          </mxGeometry>
        </mxCell>
        <mxCell id="P-C7prF8rhKOiH9UQiEX-29" value="phone VARCHAR(10) UNIQUE NOT NULL" style="shape=partialRectangle;overflow=hidden;connectable=0;fillColor=none;top=0;left=0;bottom=0;right=0;align=left;spacingLeft=6;" vertex="1" parent="P-C7prF8rhKOiH9UQiEX-27">
          <mxGeometry x="30" width="220" height="30" as="geometry">
            <mxRectangle width="220" height="30" as="alternateBounds" />
          </mxGeometry>
        </mxCell>
        <mxCell id="P-C7prF8rhKOiH9UQiEX-38" style="shape=partialRectangle;collapsible=0;dropTarget=0;pointerEvents=0;fillColor=none;points=[[0,0.5],[1,0.5]];portConstraint=eastwest;top=0;left=0;right=0;bottom=0;" vertex="1" parent="P-C7prF8rhKOiH9UQiEX-23">
          <mxGeometry y="90" width="250" height="30" as="geometry" />
        </mxCell>
        <mxCell id="P-C7prF8rhKOiH9UQiEX-39" style="shape=partialRectangle;overflow=hidden;connectable=0;fillColor=none;top=0;left=0;bottom=0;right=0;" vertex="1" parent="P-C7prF8rhKOiH9UQiEX-38">
          <mxGeometry width="30" height="30" as="geometry">
            <mxRectangle width="30" height="30" as="alternateBounds" />
          </mxGeometry>
        </mxCell>
        <mxCell id="P-C7prF8rhKOiH9UQiEX-40" style="shape=partialRectangle;overflow=hidden;connectable=0;fillColor=none;top=0;left=0;bottom=0;right=0;align=left;spacingLeft=6;" vertex="1" parent="P-C7prF8rhKOiH9UQiEX-38">
          <mxGeometry x="30" width="220" height="30" as="geometry">
            <mxRectangle width="220" height="30" as="alternateBounds" />
          </mxGeometry>
        </mxCell>
        <mxCell id="P-C7prF8rhKOiH9UQiEX-41" style="shape=partialRectangle;collapsible=0;dropTarget=0;pointerEvents=0;fillColor=none;points=[[0,0.5],[1,0.5]];portConstraint=eastwest;top=0;left=0;right=0;bottom=0;" vertex="1" parent="P-C7prF8rhKOiH9UQiEX-23">
          <mxGeometry y="120" width="250" height="30" as="geometry" />
        </mxCell>
        <mxCell id="P-C7prF8rhKOiH9UQiEX-42" style="shape=partialRectangle;overflow=hidden;connectable=0;fillColor=none;top=0;left=0;bottom=0;right=0;" vertex="1" parent="P-C7prF8rhKOiH9UQiEX-41">
          <mxGeometry width="30" height="30" as="geometry">
            <mxRectangle width="30" height="30" as="alternateBounds" />
          </mxGeometry>
        </mxCell>
        <mxCell id="P-C7prF8rhKOiH9UQiEX-43" style="shape=partialRectangle;overflow=hidden;connectable=0;fillColor=none;top=0;left=0;bottom=0;right=0;align=left;spacingLeft=6;" vertex="1" parent="P-C7prF8rhKOiH9UQiEX-41">
          <mxGeometry x="30" width="220" height="30" as="geometry">
            <mxRectangle width="220" height="30" as="alternateBounds" />
          </mxGeometry>
        </mxCell>
        <mxCell id="P-C7prF8rhKOiH9UQiEX-47" value="name VARCHAR(100) NOT NULL" style="shape=partialRectangle;overflow=hidden;connectable=0;fillColor=none;top=0;left=0;bottom=0;right=0;align=left;spacingLeft=6;" vertex="1" parent="1">
          <mxGeometry x="150" y="210" width="220" height="30" as="geometry">
            <mxRectangle width="220" height="30" as="alternateBounds" />
          </mxGeometry>
        </mxCell>
        <mxCell id="P-C7prF8rhKOiH9UQiEX-48" value="last_name VARCHAR(100) NOT NULL" style="shape=partialRectangle;overflow=hidden;connectable=0;fillColor=none;top=0;left=0;bottom=0;right=0;align=left;spacingLeft=6;" vertex="1" parent="1">
          <mxGeometry x="150" y="240" width="220" height="30" as="geometry">
            <mxRectangle width="220" height="30" as="alternateBounds" />
          </mxGeometry>
        </mxCell>
        <mxCell id="P-C7prF8rhKOiH9UQiEX-55" value="balance FLOAT NOT NULL DEFAULT 0.0" style="shape=partialRectangle;overflow=hidden;connectable=0;fillColor=none;top=0;left=0;bottom=0;right=0;align=left;spacingLeft=6;" vertex="1" parent="1">
          <mxGeometry x="480" y="240" width="240" height="30" as="geometry">
            <mxRectangle width="220" height="30" as="alternateBounds" />
          </mxGeometry>
        </mxCell>
        <mxCell id="P-C7prF8rhKOiH9UQiEX-56" value="status BOOLEAN NOT NULL DEFAULT TRUE" style="shape=partialRectangle;overflow=hidden;connectable=0;fillColor=none;top=0;left=0;bottom=0;right=0;align=left;spacingLeft=6;" vertex="1" parent="1">
          <mxGeometry x="480" y="270" width="260" height="30" as="geometry">
            <mxRectangle width="220" height="30" as="alternateBounds" />
          </mxGeometry>
        </mxCell>
        <mxCell id="P-C7prF8rhKOiH9UQiEX-63" value="value FLOAT NOT NULL" style="shape=partialRectangle;overflow=hidden;connectable=0;fillColor=none;top=0;left=0;bottom=0;right=0;align=left;spacingLeft=6;" vertex="1" parent="1">
          <mxGeometry x="490" y="490" width="220" height="30" as="geometry">
            <mxRectangle width="220" height="30" as="alternateBounds" />
          </mxGeometry>
        </mxCell>
        <mxCell id="P-C7prF8rhKOiH9UQiEX-64" value="transaction_datetime TIMESTAMP NOT NULL DEFAULT CURRENT_TIMESTAMP" style="shape=partialRectangle;overflow=hidden;connectable=0;fillColor=none;top=0;left=0;bottom=0;right=0;align=left;spacingLeft=6;" vertex="1" parent="1">
          <mxGeometry x="490" y="520" width="460" height="30" as="geometry">
            <mxRectangle width="220" height="30" as="alternateBounds" />
          </mxGeometry>
        </mxCell>
        <mxCell id="P-C7prF8rhKOiH9UQiEX-65" value="FK2" style="shape=partialRectangle;overflow=hidden;connectable=0;fillColor=none;top=0;left=0;bottom=0;right=0;" vertex="1" parent="1">
          <mxGeometry x="460" y="460" width="30" height="30" as="geometry">
            <mxRectangle width="30" height="30" as="alternateBounds" />
          </mxGeometry>
        </mxCell>
        <mxCell id="P-C7prF8rhKOiH9UQiEX-71" style="edgeStyle=orthogonalEdgeStyle;rounded=1;orthogonalLoop=1;jettySize=auto;html=1;exitX=1;exitY=0.5;exitDx=0;exitDy=0;entryX=1;entryY=0.5;entryDx=0;entryDy=0;curved=0;endArrow=ERone;endFill=0;startArrow=ERmany;startFill=0;" edge="1" parent="1" source="P-C7prF8rhKOiH9UQiEX-20" target="P-C7prF8rhKOiH9UQiEX-4">
          <mxGeometry relative="1" as="geometry">
            <Array as="points">
              <mxPoint x="980" y="475" />
              <mxPoint x="980" y="165" />
            </Array>
          </mxGeometry>
        </mxCell>
      </root>
    </mxGraphModel>
  </diagram>
</mxfile>
